/* XPM */
static char * bottom_right_inactive_xpm[] = {
"30 30 2 1",
" 	c None",
".	c #596266",
"                           ...",
"                           ...",
"                           ...",
"                           ...",
"                           ...",
"                           ...",
"                           ...",
"                           ...",
"                           ...",
"                           ...",
"                           ...",
"                           ...",
"                           ...",
"                           ...",
"                           ...",
"                           ...",
"                           ...",
"                           ...",
"                           ...",
"                           ...",
"                           ...",
"                           ...",
"                           ...",
"                           ...",
"                           ...",
"                           ...",
"                           ...",
"..............................",
"..............................",
".............................."};
