/* XPM */
static char * close_inactive_xpm[] = {
"20 20 92 2",
"  	c None",
". 	c #2A5871",
"+ 	c #4D778F",
"@ 	c #4D7790",
"# 	c #4D7890",
"$ 	c #4D788F",
"% 	c #4E7790",
"& 	c #4E788F",
"* 	c #527C93",
"= 	c #527B93",
"- 	c #537B93",
"; 	c #537C93",
"> 	c #588097",
", 	c #578097",
"' 	c #588096",
") 	c #588196",
"! 	c #578197",
"~ 	c #578096",
"{ 	c #5D859B",
"] 	c #5D849A",
"^ 	c #5D849B",
"/ 	c #5D859A",
"( 	c #62889E",
"_ 	c #62899E",
": 	c #63889F",
"< 	c #63889E",
"[ 	c #62889F",
"} 	c #63899F",
"| 	c #668CA1",
"1 	c #678CA1",
"2 	c #668CA2",
"3 	c #6C91A4",
"4 	c #6C90A4",
"5 	c #6B90A5",
"6 	c #6C91A5",
"7 	c #6B90A4",
"8 	c #6C90A5",
"9 	c #7095A8",
"0 	c #7095A9",
"a 	c #7195A8",
"b 	c #7195A9",
"c 	c #7194A8",
"d 	c #7194A9",
"e 	c #7094A9",
"f 	c #7699AC",
"g 	c #7799AD",
"h 	c #7798AC",
"i 	c #7699AD",
"j 	c #7799AC",
"k 	c #7698AC",
"l 	c #7B9DB0",
"m 	c #7B9EAF",
"n 	c #7C9DB0",
"o 	c #7B9DAF",
"p 	c #7C9EB0",
"q 	c #81A1B4",
"r 	c #81A1B3",
"s 	c #80A2B3",
"t 	c #81A2B4",
"u 	c #81A2B3",
"v 	c #80A2B4",
"w 	c #86A5B7",
"x 	c #86A6B8",
"y 	c #86A5B8",
"z 	c #86A6B7",
"A 	c #8BA9BB",
"B 	c #8BAABB",
"C 	c #8CAABB",
"D 	c #91AEBF",
"E 	c #91AEBE",
"F 	c #90AEBE",
"G 	c #90AFBF",
"H 	c #91AFBE",
"I 	c #91AFBF",
"J 	c #90AEBF",
"K 	c #96B3C3",
"L 	c #96B2C2",
"M 	c #96B2C3",
"N 	c #96B3C2",
"O 	c #9CB7C7",
"P 	c #9BB7C6",
"Q 	c #9CB7C6",
"R 	c #9BB7C7",
"S 	c #A1BBCA",
"T 	c #A0BBCA",
"U 	c #A1BBC9",
"V 	c #A6BFCE",
"W 	c #A5BFCD",
"X 	c #A6C0CE",
"Y 	c #A6C0CD",
"Z 	c #A6BFCD",
"` 	c #A5C0CE",
"    . . . . . . . . . . . . . . . .     ",
"  . + + @ # $ % + $ @ @ # & $ $ & @ .   ",
". * = - * * * * ; ; ; * ; * ; ; * * * . ",
". > , , > > ' > ) ! > > , > ' > ~ , > . ",
". { { ] ] { { ^ ^ / ^ { / { ^ . ] ^ / . ",
". ( _ : _ _ < [ _ } _ _ ( < . ( ( _ ( . ",
". | 1 1 1 | 1 1 | 1 1 1 | . | | | 2 | . ",
". 3 4 5 5 6 7 8 6 7 4 3 . 6 8 8 6 5 8 . ",
". 9 0 a b a c b a c a . b 0 d e 0 d c . ",
". f g h i f f i f f . f j f f f f k f . ",
". l l m l n o o n . n l l n n n p n n . ",
". q r q r r s q . t r t q t q r u v r . ",
". w w w w x w . y x z z z w z w x y z . ",
". A B B B B . B B C B B C C B B B C B . ",
". D E E F . G G H I G I J J D D D D E . ",
". K L M . N K N N N M L L N L K N N N . ",
". O P O Q P P P R P P O P P O P P Q P . ",
". S T T S S U T S S S T S T S T T S S . ",
"  . V W X Y V V Z V V V V ` V Z V X .   ",
"    . . . . . . . . . . . . . . . .     "};
