/* XPM */
static char * hide_active_xpm[] = {
"20 20 87 1",
" 	c None",
".	c #2A5871",
"+	c #4D788F",
"@	c #4D7790",
"#	c #4D7890",
"$	c #4D778F",
"%	c #527C93",
"&	c #527C94",
"*	c #527B94",
"=	c #537C93",
"-	c #537B93",
";	c #588096",
">	c #588097",
",	c #588197",
"'	c #578097",
")	c #578197",
"!	c #5D849B",
"~	c #5D859A",
"{	c #5E859B",
"]	c #5D859B",
"^	c #63899E",
"/	c #62889E",
"(	c #62899E",
"_	c #63899F",
":	c #62899F",
"<	c #63889F",
"[	c #678DA2",
"}	c #688DA2",
"|	c #688EA2",
"1	c #6D91A5",
"2	c #6D91A6",
"3	c #6C92A6",
"4	c #6D92A5",
"5	c #6D92A6",
"6	c #7296A9",
"7	c #7295AA",
"8	c #7396AA",
"9	c #7296AA",
"0	c #7396A9",
"a	c #779AAD",
"b	c #7799AE",
"c	c #789AAD",
"d	c #7899AD",
"e	c #7D9EB1",
"f	c #7D9EB0",
"g	c #7D9FB1",
"h	c #7C9EB1",
"i	c #82A3B4",
"j	c #82A2B4",
"k	c #82A2B5",
"l	c #82A3B5",
"m	c #83A3B4",
"n	c #88A7B8",
"o	c #87A7B9",
"p	c #87A7B8",
"q	c #88A6B8",
"r	c #88A7B9",
"s	c #87A6B8",
"t	c #8BAABB",
"u	c #8BAABC",
"v	c #8CAABB",
"w	c #8CAABC",
"x	c #91AEBF",
"y	c #90AEBF",
"z	c #90AFBF",
"A	c #91AFBE",
"B	c #91AEBE",
"C	c #91AFBF",
"D	c #96B3C2",
"E	c #96B2C3",
"F	c #95B2C2",
"G	c #96B2C2",
"H	c #96B3C3",
"I	c #9BB7C6",
"J	c #9CB6C6",
"K	c #9BB6C6",
"L	c #9BB7C7",
"M	c #9BB6C7",
"N	c #A0BBCA",
"O	c #A1BBCA",
"P	c #A1BBC9",
"Q	c #A6BFCD",
"R	c #A5C0CE",
"S	c #A6BFCE",
"T	c #A6C0CE",
"U	c #A5C0CD",
"V	c #A6C0CD",
"  ................  ",
" .+@+##$#$++$+#+$+. ",
".%%%%&%%%%*==&%%=%-.",
".;>,>'>>>);>>,>)>>>.",
".!!~~~{~~!~]]!].~]].",
".^^//(_(:^:^(<.:(^(.",
".[}}}}}}|}}[}.}[[}}.",
".11232412552.121245.",
".6789696796.9606977.",
".aaaaabcac.cccccadc.",
".efe.eghg.eeeegfege.",
".ijj.jkl.kiiijmijli.",
".nno.po.ppqqpprnpss.",
".tuv.v.vtwtvtttttwt.",
".xyz..xAxBxyxxxyxyC.",
".DDE......FGHEHEDGG.",
".IIJIIKILIMIIIIIJII.",
".NONOOONNOOPNNNOOON.",
" .QRSTUSQVSSSVSQQQ. ",
"  ................  "};
