/* XPM */
static char * maximize_toggled_prelight_xpm[] = {
"20 20 3 1",
" 	c None",
".	c #052B3F",
"+	c #A8C1CF",
"  ................  ",
" .++++++++++++++++. ",
".++++++++++++++++++.",
".++++++++++++++++++.",
".++++++++++++++++++.",
".+++++..........+++.",
".+++++.++++++++.+++.",
".+++..........+.+++.",
".+++.++++++++.+.+++.",
".+++.++++++++.+.+++.",
".+++.++++++++.+.+++.",
".+++.++++++++.+.+++.",
".+++.++++++++...+++.",
".+++.++++++++.+++++.",
".+++..........+++++.",
".++++++++++++++++++.",
".++++++++++++++++++.",
".++++++++++++++++++.",
" .++++++++++++++++. ",
"  ................  "};
