/* XPM */
static char * maximize_toggled_active_xpm[] = {
"20 20 84 1",
" 	c None",
".	c #2A5871",
"+	c #4D7890",
"@	c #4D778F",
"#	c #4D788F",
"$	c #527B92",
"%	c #537B92",
"&	c #527C93",
"*	c #527B93",
"=	c #527C92",
"-	c #598197",
";	c #588197",
">	c #598097",
",	c #598198",
"'	c #588097",
")	c #588098",
"!	c #588198",
"~	c #5D859B",
"{	c #5D859A",
"]	c #5D849B",
"^	c #5E859B",
"/	c #5D849A",
"(	c #62899F",
"_	c #62899E",
":	c #63899E",
"<	c #62889F",
"[	c #688DA1",
"}	c #678CA1",
"|	c #678DA1",
"1	c #678DA2",
"2	c #688DA2",
"3	c #688CA1",
"4	c #6C91A5",
"5	c #6D91A5",
"6	c #6C91A6",
"7	c #7195A9",
"8	c #7194A9",
"9	c #A8C1CF",
"0	c #7295A8",
"a	c #7699AC",
"b	c #7699AD",
"c	c #7799AC",
"d	c #7D9EB1",
"e	c #7D9EB0",
"f	c #7C9EB1",
"g	c #7C9EB0",
"h	c #81A2B4",
"i	c #82A2B4",
"j	c #81A2B5",
"k	c #82A2B5",
"l	c #87A6B8",
"m	c #86A6B8",
"n	c #87A6B7",
"o	c #8CAABB",
"p	c #8BAABB",
"q	c #8CAABC",
"r	c #91AEBE",
"s	c #90AEBE",
"t	c #90AFBF",
"u	c #91AFBE",
"v	c #91AEBF",
"w	c #91AFBF",
"x	c #96B2C3",
"y	c #96B2C2",
"z	c #95B2C2",
"A	c #96B3C3",
"B	c #96B3C2",
"C	c #95B2C3",
"D	c #95B3C3",
"E	c #9BB7C6",
"F	c #9AB7C6",
"G	c #9BB6C5",
"H	c #9AB6C6",
"I	c #9BB6C6",
"J	c #9AB7C5",
"K	c #9BB7C5",
"L	c #A1BCCA",
"M	c #A1BBCA",
"N	c #A1BBCB",
"O	c #A0BBCB",
"P	c #A6BFCE",
"Q	c #A6C0CE",
"R	c #A5BFCE",
"S	c #A6BFCD",
"  ................  ",
" .+@++##@#+@@@##@#. ",
".$%&*$&&*&&=*$**&&$.",
".-;>,;;;;',);))!;>>.",
".~{]^^~]~/]]~/]]~~/.",
".(__:(.........._(<.",
".[}||1.|12[1|11.331.",
".454..........4.666.",
".778.99999999.0.777.",
".aab.99999999.a.acc.",
".dde.99999999.f.gdd.",
".hih.99999999.j.hkh.",
".lml.99999999...nml.",
".opo.99999999.pqqpq.",
".rrs..........tuvwv.",
".xyyyzzAxBzzyCAxyAD.",
".EFGEHIEJHKIEEEFIEK.",
".LMLMLLMLMLNLMOLMMM.",
" .PPPQPPPQRPPSQSPQ. ",
"  ................  "};
