/* XPM */
static char * maximize_active_xpm[] = {
"20 20 83 1",
" 	c None",
".	c #2A5871",
"+	c #4D778F",
"@	c #4D7890",
"#	c #4D788F",
"$	c #4D7790",
"%	c #4E7890",
"&	c #4E7790",
"*	c #527C93",
"=	c #537C93",
"-	c #588097",
";	c #588197",
">	c #578197",
",	c #588096",
"'	c #578097",
")	c #5D849B",
"!	c #5E849B",
"~	c #5D859B",
"{	c #5D849A",
"]	c #5E859A",
"^	c #5E849A",
"/	c #5D859A",
"(	c #63899E",
"_	c #62899E",
":	c #62889E",
"<	c #678DA2",
"[	c #688DA2",
"}	c #678DA1",
"|	c #6D91A6",
"1	c #6D92A6",
"2	c #6D92A5",
"3	c #6D91A5",
"4	c #7295A9",
"5	c #7395A9",
"6	c #7296AA",
"7	c #7295AA",
"8	c #7296A9",
"9	c #779AAD",
"0	c #789AAD",
"a	c #789AAE",
"b	c #779AAE",
"c	c #7899AD",
"d	c #7D9EB1",
"e	c #7D9FB1",
"f	c #7D9EB0",
"g	c #7D9FB0",
"h	c #82A2B5",
"i	c #82A3B5",
"j	c #82A2B4",
"k	c #82A3B4",
"l	c #83A2B5",
"m	c #88A6B9",
"n	c #87A7B8",
"o	c #88A7B8",
"p	c #88A7B9",
"q	c #87A6B9",
"r	c #87A7B9",
"s	c #8CABBC",
"t	c #8DABBC",
"u	c #92AFC0",
"v	c #92B0C0",
"w	c #97B3C4",
"x	c #97B4C4",
"y	c #98B3C4",
"z	c #97B3C3",
"A	c #98B4C4",
"B	c #98B3C3",
"C	c #97B4C3",
"D	c #98B4C3",
"E	c #9DB8C7",
"F	c #9CB8C7",
"G	c #9CB7C7",
"H	c #9DB7C7",
"I	c #A2BCCB",
"J	c #A1BCCB",
"K	c #A1BDCB",
"L	c #A2BCCA",
"M	c #A7C1CF",
"N	c #A7C0CF",
"O	c #A7C0CE",
"P	c #A7C1CE",
"Q	c #A8C1CF",
"R	c #A8C0CF",
"  ................  ",
" .++@#$+#++#+%+#&$. ",
".*=*=****===**=*==*.",
".-;>;;;,'->---,'>-,.",
".)!~~{~~{)~]{^/)~/{.",
".(_:............_(:.",
".<<<.[[<<}<<<[[.<[[.",
".|11.211||33||2.|31.",
".454.6467588868.744.",
".909.0090ab0990.9c0.",
".ddd.eddddddded.fdg.",
".hhi.jhjihiiklj.ikj.",
".mno.moonpnnmno.oqr.",
".sts.tttttssttt.ttt.",
".uuv............uuu.",
".wwxywzzxxzAxBwCDxA.",
".EEFFGGEEGEHHHEEFEE.",
".IIIIIIJIIJIIKIILII.",
" .MNMOONPMPQMONORN. ",
"  ................  "};
