/* XPM */
static char * menu_inactive_xpm[] = {
"20 20 88 1",
" 	c None",
".	c #2A5871",
"+	c #4D7790",
"@	c #4D788F",
"#	c #4D7890",
"$	c #4D778F",
"%	c #527C93",
"&	c #527B93",
"*	c #527C92",
"=	c #527B92",
"-	c #588197",
";	c #588198",
">	c #588097",
",	c #598097",
"'	c #598197",
")	c #5D859B",
"!	c #5D849B",
"~	c #5E849B",
"{	c #5D849A",
"]	c #5E849A",
"^	c #5D859A",
"/	c #5E859B",
"(	c #63889F",
"_	c #62899E",
":	c #62889E",
"<	c #62899F",
"[	c #678DA1",
"}	c #688CA1",
"|	c #678CA2",
"1	c #678DA2",
"2	c #688DA1",
"3	c #688DA2",
"4	c #6D91A5",
"5	c #6C91A5",
"6	c #6C91A6",
"7	c #6C90A5",
"8	c #7195A9",
"9	c #7295A9",
"0	c #7195A8",
"a	c #7194A8",
"b	c #7295A8",
"c	c #7294A9",
"d	c #7699AC",
"e	c #7799AC",
"f	c #7799AD",
"g	c #7D9EB1",
"h	c #7C9EB1",
"i	c #7C9EB0",
"j	c #7D9EB0",
"k	c #82A2B4",
"l	c #81A2B4",
"m	c #82A3B4",
"n	c #82A2B5",
"o	c #81A2B5",
"p	c #86A6B8",
"q	c #87A6B8",
"r	c #87A7B7",
"s	c #87A6B7",
"t	c #8CAABB",
"u	c #8BAABB",
"v	c #8CAABC",
"w	c #90AFBE",
"x	c #91AEBF",
"y	c #91AEBE",
"z	c #90AEBF",
"A	c #90AEBE",
"B	c #90AFBF",
"C	c #95B2C3",
"D	c #96B2C2",
"E	c #96B3C2",
"F	c #95B2C2",
"G	c #95B3C2",
"H	c #95B3C3",
"I	c #96B3C3",
"J	c #9BB6C6",
"K	c #9AB7C6",
"L	c #9AB6C6",
"M	c #9AB6C5",
"N	c #9BB7C6",
"O	c #9BB7C5",
"P	c #A1BBCA",
"Q	c #A1BBCB",
"R	c #A1BCCA",
"S	c #A1BCCB",
"T	c #A6C0CE",
"U	c #A6BFCE",
"V	c #A6C0CD",
"W	c #A6BFCD",
"  ................  ",
" .++@#@@@@$$$$$@$@. ",
".%&%*&%&&&%%=*%%%&&.",
".-;->->-,->---;''>'.",
".)!~)))){)]~^{^!^)/.",
".(_:<..........:___.",
".[}|1..........21|3.",
".455556457554555454.",
".89088a8b80998999c8.",
".defe..........dddd.",
".ghij..........iigg.",
".kkkklmllnkllknklko.",
".pqqqqrpqpprqqspqqq.",
".tutt..........utuv.",
".wxyz..........zAxB.",
".CDCDEFGFDCHDEDIDDD.",
".JKLMJJNJJJLJNJJKNO.",
".PQQQRPPPRPPPRPSRQP.",
" .TUVUUTTTVUWTVUUT. ",
"  ................  "};
