/* XPM */
static char * shade_toggled_pressed_xpm[] = {
"20 20 3 1",
" 	c None",
".	c #621802",
"+	c #A8C1CF",
"  ................  ",
" .++++++++++++++++. ",
".++++++++++++++++++.",
".++..............++.",
".++..............++.",
".+++.++++++++++++++.",
".+++.++++++++++++++.",
".+++.+++.......++++.",
".+++.+++.......++++.",
".+++.+++.......++++.",
".+++.+++.......++++.",
".+++.+++.......++++.",
".+++.+++.......++++.",
".+++.+++.......++++.",
".+++.++++++++++++++.",
".+++.++++++++++++++.",
".+++.++++++++++++++.",
".++++++++++++++++++.",
" .++++++++++++++++. ",
"  ................  "};
