/* XPM */
static char * shade_toggled_inactive_xpm[] = {
"20 20 79 1",
" 	c None",
".	c #2A5871",
"+	c #4D788F",
"@	c #4D7890",
"#	c #4D7790",
"$	c #4E788F",
"%	c #4D778F",
"&	c #537C93",
"*	c #527C93",
"=	c #527C94",
"-	c #588097",
";	c #588096",
">	c #578097",
",	c #5D849B",
"'	c #5D849A",
")	c #5D859B",
"!	c #62899E",
"~	c #63899E",
"{	c #63889E",
"]	c #62899F",
"^	c #62889E",
"/	c #678DA2",
"(	c #688DA2",
"_	c #678DA1",
":	c #688EA2",
"<	c #688DA1",
"[	c #6C91A6",
"}	c #6D91A5",
"|	c #6D91A6",
"1	c #6D92A6",
"2	c #7396AA",
"3	c #7296AA",
"4	c #7296A9",
"5	c #7295A9",
"6	c #7396A9",
"7	c #7295AA",
"8	c #779AAD",
"9	c #789AAD",
"0	c #7D9EB1",
"a	c #7D9EB0",
"b	c #7C9EB1",
"c	c #7D9FB0",
"d	c #7D9FB1",
"e	c #82A2B4",
"f	c #82A3B4",
"g	c #82A2B5",
"h	c #82A3B5",
"i	c #87A7B9",
"j	c #87A6B9",
"k	c #87A7B8",
"l	c #88A7B8",
"m	c #87A6B8",
"n	c #8DABBC",
"o	c #8CABBC",
"p	c #92B0BF",
"q	c #92AFC0",
"r	c #92AFBF",
"s	c #97B4C3",
"t	c #97B3C3",
"u	c #98B3C4",
"v	c #97B4C4",
"w	c #97B3C4",
"x	c #98B3C3",
"y	c #98B4C3",
"z	c #9CB8C7",
"A	c #9DB8C7",
"B	c #9DB8C8",
"C	c #9CB8C8",
"D	c #9CB7C8",
"E	c #9DB7C7",
"F	c #A2BCCB",
"G	c #A1BCCB",
"H	c #A2BCCA",
"I	c #A2BDCB",
"J	c #A7C0CF",
"K	c #A8C1CE",
"L	c #A7C0CE",
"M	c #A7C1CE",
"N	c #A7C1CF",
"  ................  ",
" .+@+#$+#+#%@@+%@+. ",
".&&**&=&&=&&*&&&&**.",
".-;..............>>.",
".,'..............)).",
".!~!.!~{~]~^!]~!~{!.",
".//(.(/((/(_(:(//<(.",
".[}|.}1}.......}}|}.",
".223.425.......4674.",
".888.989.......9998.",
".0aa.b00.......0cd0.",
".efe.ghf.......gfgf.",
".iji.kki.......klmm.",
".noo.onn.......nnnn.",
".pqq.rrqqprqpprqqqr.",
".sss.tsusvtwxsswvwy.",
".zzA.AABCzADzBzBzCE.",
".FFGGFFFFHFFFFFIFHF.",
" .JKJJLMJLJNJMMLLJ. ",
"  ................  "};
