/* XPM */
static char * shade_active_xpm[] = {
"20 20 83 1",
" 	c None",
".	c #2A5871",
"+	c #4D7790",
"@	c #4D7890",
"#	c #4D778F",
"$	c #4E788F",
"%	c #4E7890",
"&	c #4D788F",
"*	c #527C93",
"=	c #537C93",
"-	c #527B93",
";	c #527B94",
">	c #588096",
",	c #588097",
"'	c #5D859A",
")	c #5D849B",
"!	c #5D859B",
"~	c #5D849A",
"{	c #62899F",
"]	c #62899E",
"^	c #63899E",
"/	c #62889E",
"(	c #688DA2",
"_	c #678DA2",
":	c #688EA2",
"<	c #6D91A6",
"[	c #6D92A5",
"}	c #6C91A6",
"|	c #6D91A5",
"1	c #7296AA",
"2	c #7295AA",
"3	c #7296A9",
"4	c #7396A9",
"5	c #7295A9",
"6	c #789AAD",
"7	c #779AAD",
"8	c #7899AD",
"9	c #7D9EB1",
"0	c #7D9FB1",
"a	c #7D9FB0",
"b	c #7D9EB0",
"c	c #7C9EB1",
"d	c #7C9FB1",
"e	c #82A3B5",
"f	c #83A3B4",
"g	c #82A2B4",
"h	c #82A2B5",
"i	c #82A3B4",
"j	c #83A2B5",
"k	c #88A7B8",
"l	c #87A7B8",
"m	c #88A6B8",
"n	c #87A6B8",
"o	c #87A7B9",
"p	c #88A7B9",
"q	c #88A6B9",
"r	c #8DABBC",
"s	c #8CABBC",
"t	c #92AFBF",
"u	c #92AFC0",
"v	c #92B0C0",
"w	c #92B0BF",
"x	c #97B3C4",
"y	c #97B4C4",
"z	c #97B3C3",
"A	c #98B3C3",
"B	c #98B4C4",
"C	c #97B4C3",
"D	c #9CB8C7",
"E	c #9CB7C7",
"F	c #9DB8C7",
"G	c #9CB8C8",
"H	c #9DB8C8",
"I	c #A1BCCB",
"J	c #A2BCCA",
"K	c #A2BDCA",
"L	c #A2BCCB",
"M	c #A2BDCB",
"N	c #A7C1CF",
"O	c #A7C0CF",
"P	c #A7C1CE",
"Q	c #A8C1CE",
"R	c #A7C0CE",
"  ................  ",
" .+@#@##@$++%&&&@&. ",
".**=*=*==*-*===;*=*.",
".>,..............,,.",
".')..............!~.",
".{]].]^]]]]]{]^]/{^.",
".((_.((((_((((((:((.",
".<[<.<}|.......<[<|.",
".123.43351133325211.",
".667.66787776677667.",
".909.9a9b909c9db90b.",
".eff.gggehgigjgghih.",
".klk.klmlnllopqlloo.",
".rrr.srrrrrrsrrrsrr.",
".tuv.uuutuuwuuvtwtt.",
".xyx.yxzzAAzBxCCyCy.",
".DEF.FFFDGDDDDDDHFD.",
".IJJKLIJJMLLLLLLLMM.",
" .NNONPONQPPPORPNO. ",
"  ................  "};
