/* XPM */
static char * stick_active_xpm[] = {
"20 20 81 1",
" 	c None",
".	c #2A5871",
"+	c #4D788F",
"@	c #4E7790",
"#	c #4D7890",
"$	c #4D778F",
"%	c #4E788F",
"&	c #4D7790",
"*	c #527C93",
"=	c #537C93",
"-	c #527B93",
";	c #527C94",
">	c #588097",
",	c #588197",
"'	c #578197",
")	c #588096",
"!	c #578097",
"~	c #578096",
"{	c #5D849B",
"]	c #5E849A",
"^	c #5D859A",
"/	c #5D859B",
"(	c #5D849A",
"_	c #5E849B",
":	c #62889F",
"<	c #62899E",
"[	c #62889E",
"}	c #63889E",
"|	c #63889F",
"1	c #688DA2",
"2	c #688EA2",
"3	c #678DA1",
"4	c #678DA2",
"5	c #6D91A6",
"6	c #6D91A5",
"7	c #6D92A6",
"8	c #7296A9",
"9	c #7396A9",
"0	c #7295AA",
"a	c #7295A9",
"b	c #7296AA",
"c	c #779AAD",
"d	c #789AAD",
"e	c #789AAE",
"f	c #7D9EB1",
"g	c #7D9EB0",
"h	c #82A3B4",
"i	c #82A3B5",
"j	c #82A2B5",
"k	c #82A2B4",
"l	c #87A7B8",
"m	c #88A7B8",
"n	c #88A6B8",
"o	c #8CABBC",
"p	c #8DABBC",
"q	c #8CABBB",
"r	c #92AFC0",
"s	c #92AFBF",
"t	c #92B0C0",
"u	c #92B0BF",
"v	c #97B4C3",
"w	c #97B3C3",
"x	c #97B4C4",
"y	c #97B3C4",
"z	c #9CB8C7",
"A	c #9DB8C8",
"B	c #9DB7C7",
"C	c #9DB8C7",
"D	c #9CB8C8",
"E	c #A2BCCA",
"F	c #A2BCCB",
"G	c #A2BDCB",
"H	c #A2BDCA",
"I	c #A1BDCB",
"J	c #A1BCCB",
"K	c #A7C0CF",
"L	c #A8C1CE",
"M	c #A8C1CF",
"N	c #A7C0CE",
"O	c #A8C0CF",
"P	c #A7C1CE",
"  ................  ",
" .+@+#+$#%#&&++%+$. ",
".*==**-=*=***===;**.",
".>>,,,')>>>,,,!>>>~.",
".{]..^/(_^//(/({^{{.",
".:<..[<:<[.<<<}<<|<.",
".12..34141.11411414.",
".55........56755575.",
".89........80aba089.",
".cd..............de.",
".fg..............fg.",
".hi........jkihkhkh.",
".lm........lmnllllm.",
".oo..poppp.pppqpppp.",
".rr..ssrrr.tturtssr.",
".vv..wwvvxvvvwyywyx.",
".zABzCCDCzADCCCAzzz.",
".EFGFFFFGGEHFIFJFFF.",
" .KLMNKNKOOPKOPKKP. ",
"  ................  "};
