/* XPM */
static char * stick_toggled_inactive_xpm[] = {
"20 20 3 1",
" 	c None",
".	c #052B3F",
"+	c #A8C1CF",
"  ................  ",
" .++++++++++++++++. ",
".++++++++++++++++++.",
".++++++++++++++++++.",
".++..++++++++++++++.",
".++..+++++.++++++++.",
".++..+++++.++++++++.",
".++........++++++++.",
".++........++++++++.",
".++..............++.",
".++..............++.",
".++........++++++++.",
".++........++++++++.",
".++..+++++.++++++++.",
".++..+++++.++++++++.",
".++..++++++++++++++.",
".++++++++++++++++++.",
".++++++++++++++++++.",
" .++++++++++++++++. ",
"  ................  "};
