/* XPM */
static char * title_3_inactive_xpm[] = {
"6 30 88 1",
" 	c None",
".	c #052B3F",
"+	c #072D41",
"@	c #082D41",
"#	c #082D40",
"$	c #0C3043",
"%	c #0B3043",
"&	c #103345",
"*	c #0F3345",
"=	c #143647",
"-	c #143648",
";	c #17384A",
">	c #183949",
",	c #183849",
"'	c #18394A",
")	c #18384A",
"!	c #1B3B4C",
"~	c #1C3C4C",
"{	c #1C3B4C",
"]	c #1F3E4E",
"^	c #1F3E4F",
"/	c #203F4F",
"(	c #203E4E",
"_	c #244151",
":	c #244150",
"<	c #244251",
"[	c #234250",
"}	c #284452",
"|	c #284453",
"1	c #284553",
"2	c #2C4755",
"3	c #2C4756",
"4	c #2B4755",
"5	c #2F4A58",
"6	c #304A57",
"7	c #2F4A57",
"8	c #344D59",
"9	c #344D5A",
"0	c #38505C",
"a	c #37505C",
"b	c #38505B",
"c	c #3C525E",
"d	c #3C535E",
"e	c #3C535F",
"f	c #3F5560",
"g	c #3F555F",
"h	c #435862",
"i	c #475B64",
"j	c #475B65",
"k	c #4B5D67",
"l	c #4B5E67",
"m	c #4C5E67",
"n	c #4F6169",
"o	c #4F6069",
"p	c #53646B",
"q	c #54646B",
"r	c #54636B",
"s	c #57676E",
"t	c #57666E",
"u	c #57676D",
"v	c #57666D",
"w	c #5B6A6F",
"x	c #5B6970",
"y	c #5B6A70",
"z	c #5B696F",
"A	c #5F6C72",
"B	c #5F6D72",
"C	c #646F74",
"D	c #636F75",
"E	c #637074",
"F	c #646F75",
"G	c #637075",
"H	c #687276",
"I	c #687377",
"J	c #687277",
"K	c #677277",
"L	c #6B7578",
"M	c #6C7579",
"N	c #6B7579",
"O	c #6F787B",
"P	c #6F797B",
"Q	c #70787C",
"R	c #70797C",
"S	c #70787B",
"T	c #737B7D",
"U	c #747B7D",
"V	c #737B7E",
"W	c #747B7E",
"......",
"++@@@#",
"$$%%$$",
"&&&&&*",
"=-=---",
";>,'')",
"!~{!~~",
"]^/((/",
"__:<_[",
"}||1||",
"222324",
"566676",
"889899",
"0ab000",
"ccdedd",
"fgffgf",
"hhhhhh",
"iijjij",
"kllllm",
"nnooon",
"pqppqr",
"sttutv",
"wxyzyy",
"ABABAB",
"CDECFG",
"HIJJKK",
"LMLNMM",
"OPQROS",
"TUVTUW",
"......"};
