/* XPM */
static char * title_5_active_xpm[] = {
"6 30 95 2",
"  	c None",
". 	c #312C2A",
"+ 	c #36302D",
"@ 	c #35302D",
"# 	c #36302E",
"$ 	c #35302E",
"% 	c #3C3432",
"& 	c #3B3431",
"* 	c #413935",
"= 	c #413836",
"- 	c #413936",
"; 	c #413835",
"> 	c #463D39",
", 	c #473D39",
"' 	c #4C413D",
") 	c #4B413D",
"! 	c #524541",
"~ 	c #524641",
"{ 	c #514541",
"] 	c #514542",
"^ 	c #574A45",
"/ 	c #584A45",
"( 	c #5C4E49",
"_ 	c #5D4E49",
": 	c #5C4F49",
"< 	c #62534D",
"[ 	c #63534D",
"} 	c #62524D",
"| 	c #685751",
"1 	c #685750",
"2 	c #675751",
"3 	c #6D5B55",
"4 	c #6E5B55",
"5 	c #6E5C55",
"6 	c #6D5C55",
"7 	c #74615A",
"8 	c #746259",
"9 	c #746159",
"0 	c #79655D",
"a 	c #7A665D",
"b 	c #7A655E",
"c 	c #79665E",
"d 	c #7F6A62",
"e 	c #806A62",
"f 	c #806A61",
"g 	c #856E65",
"h 	c #856E66",
"i 	c #8A7369",
"j 	c #8A736A",
"k 	c #8B7369",
"l 	c #8A7269",
"m 	c #90776E",
"n 	c #90776D",
"o 	c #91776D",
"p 	c #967B72",
"q 	c #967C71",
"r 	c #957B72",
"s 	c #967C72",
"t 	c #967B71",
"u 	c #957B71",
"v 	c #9C8076",
"w 	c #9B8075",
"x 	c #9B7F75",
"y 	c #A08579",
"z 	c #A1847A",
"A 	c #A18479",
"B 	c #A18579",
"C 	c #A1857A",
"D 	c #A6887D",
"E 	c #A6897D",
"F 	c #A7887D",
"G 	c #AC8C81",
"H 	c #AC8D81",
"I 	c #B39386",
"J 	c #B39285",
"K 	c #B39286",
"L 	c #B9978A",
"M 	c #B89689",
"N 	c #B8978A",
"O 	c #B8968A",
"P 	c #BE9B8D",
"Q 	c #BE9B8E",
"R 	c #BE9C8E",
"S 	c #C3A092",
"T 	c #C4A091",
"U 	c #C4A092",
"V 	c #C49F92",
"W 	c #C49F91",
"X 	c #C9A495",
"Y 	c #C9A496",
"Z 	c #CFA89A",
"` 	c #CFA99A",
" .	c #CEA89A",
"..	c #CEA999",
"+.	c #CFA899",
". . . . . . ",
"+ + + @ # $ ",
"% & & & & % ",
"* = - ; * * ",
"> > , > > > ",
"' ) ' ' ' ' ",
"! ~ { ! ] { ",
"^ ^ / ^ / ^ ",
"( ( _ _ : _ ",
"< [ } [ < } ",
"| | 1 | 2 1 ",
"3 3 4 5 6 3 ",
"7 8 7 9 7 9 ",
"0 a b b c b ",
"d e d d d f ",
"g g h g g g ",
"i j i k l k ",
"m n o m n n ",
"p q r s t u ",
"v w w x x w ",
"y z A B C z ",
"D E E F F F ",
"G H H G H H ",
"I J K K K I ",
"L M L N O N ",
"P P Q Q P R ",
"S S T U V W ",
"X X X X X Y ",
"Z `  ...+.+.",
". . . . . . "};
