/* XPM */
static char * top_left_active_xpm[] = {
"6 30 90 1",
" 	c None",
".	c #312C2A",
"+	c #332D2C",
"@	c #332E2B",
"#	c #322D2C",
"$	c #393230",
"%	c #383230",
"&	c #39322F",
"*	c #3E3634",
"=	c #3F3734",
"-	c #3E3733",
";	c #3E3734",
">	c #443B37",
",	c #453B38",
"'	c #443B38",
")	c #4A403C",
"!	c #50443F",
"~	c #504440",
"{	c #504540",
"]	c #554944",
"^	c #554844",
"/	c #564944",
"(	c #5B4E48",
"_	c #5C4D48",
":	c #5B4D48",
"<	c #61524C",
"[	c #62514C",
"}	c #675650",
"|	c #675750",
"1	c #675651",
"2	c #665751",
"3	c #665750",
"4	c #6C5B54",
"5	c #6D5B54",
"6	c #6C5B55",
"7	c #6D5B55",
"8	c #726058",
"9	c #725F59",
"0	c #725F58",
"a	c #735F58",
"b	c #735F59",
"c	c #78645C",
"d	c #79645D",
"e	c #78645D",
"f	c #7E6961",
"g	c #7E6861",
"h	c #7E6960",
"i	c #846D65",
"j	c #836D64",
"k	c #846D64",
"l	c #897268",
"m	c #8A7169",
"n	c #897168",
"o	c #8A7268",
"p	c #8F766D",
"q	c #8F766C",
"r	c #8F776C",
"s	c #957B71",
"t	c #957A71",
"u	c #957B70",
"v	c #9A7F75",
"w	c #9A8075",
"x	c #9B8075",
"y	c #A18479",
"z	c #A08479",
"A	c #A18478",
"B	c #A7887D",
"C	c #A7897D",
"D	c #A6887D",
"E	c #A6897C",
"F	c #AC8D81",
"G	c #B29285",
"H	c #B19285",
"I	c #B29185",
"J	c #B89689",
"K	c #B7968A",
"L	c #BD9A8D",
"M	c #BE9B8D",
"N	c #BE9B8E",
"O	c #BD9A8E",
"P	c #C39F91",
"Q	c #C39F92",
"R	c #C8A396",
"S	c #C9A395",
"T	c #C9A496",
"U	c #C8A395",
"V	c #CFA999",
"W	c #CFA89A",
"X	c #CFA99A",
"Y	c #CFA899",
"   ...",
"  .+@#",
" .$%&&",
".*=-;*",
".>,'>'",
".)))))",
".!~~~{",
".]^]//",
".(__::",
".<<<[<",
".}|123",
".45675",
".890ab",
".ccdec",
".fgffh",
".ijkii",
".lmlno",
".pqpqr",
".stssu",
".vwxvx",
".yzyyA",
".BBCDE",
".FFFFF",
".GGHIH",
".JKJJJ",
".LMLNO",
".PQPPP",
".RSTUR",
".VWXYW",
"......"};
