/* XPM */
static char * top_right_active_xpm[] = {
"6 30 90 1",
" 	c None",
".	c #312C2A",
"+	c #322D2C",
"@	c #332E2B",
"#	c #332D2C",
"$	c #39322F",
"%	c #383230",
"&	c #393230",
"*	c #3E3634",
"=	c #3E3734",
"-	c #3E3733",
";	c #3F3734",
">	c #443B38",
",	c #443B37",
"'	c #453B38",
")	c #4A403C",
"!	c #504540",
"~	c #504440",
"{	c #50443F",
"]	c #564944",
"^	c #554944",
"/	c #554844",
"(	c #5B4D48",
"_	c #5C4D48",
":	c #5B4E48",
"<	c #61524C",
"[	c #62514C",
"}	c #665750",
"|	c #665751",
"1	c #675651",
"2	c #675750",
"3	c #675650",
"4	c #6D5B54",
"5	c #6D5B55",
"6	c #6C5B55",
"7	c #6C5B54",
"8	c #735F59",
"9	c #735F58",
"0	c #725F58",
"a	c #725F59",
"b	c #726058",
"c	c #78645C",
"d	c #78645D",
"e	c #79645D",
"f	c #7E6960",
"g	c #7E6961",
"h	c #7E6861",
"i	c #846D65",
"j	c #846D64",
"k	c #836D64",
"l	c #8A7268",
"m	c #897168",
"n	c #897268",
"o	c #8A7169",
"p	c #8F776C",
"q	c #8F766C",
"r	c #8F766D",
"s	c #957B70",
"t	c #957B71",
"u	c #957A71",
"v	c #9B8075",
"w	c #9A7F75",
"x	c #9A8075",
"y	c #A18478",
"z	c #A18479",
"A	c #A08479",
"B	c #A6897C",
"C	c #A6887D",
"D	c #A7897D",
"E	c #A7887D",
"F	c #AC8D81",
"G	c #B19285",
"H	c #B29185",
"I	c #B29285",
"J	c #B89689",
"K	c #B7968A",
"L	c #BD9A8E",
"M	c #BE9B8E",
"N	c #BD9A8D",
"O	c #BE9B8D",
"P	c #C39F91",
"Q	c #C39F92",
"R	c #C8A396",
"S	c #C8A395",
"T	c #C9A496",
"U	c #C9A395",
"V	c #CFA89A",
"W	c #CFA899",
"X	c #CFA99A",
"Y	c #CFA999",
"...   ",
"+@#.  ",
"$$%&. ",
"*=-;*.",
">,>',.",
"))))).",
"!~~~{.",
"]]^/^.",
"((__:.",
"<[<<<.",
"}|123.",
"45647.",
"890ab.",
"cdecc.",
"fgghg.",
"iijki.",
"lmnon.",
"pqrqr.",
"sttut.",
"vwvxw.",
"yzzAz.",
"BCDEE.",
"FFFFF.",
"GHGII.",
"JJJKJ.",
"LMNON.",
"PPPQP.",
"RSTUR.",
"VWXVY.",
"......"};
