/* XPM */
static char * top_right_inactive_xpm[] = {
"6 30 81 1",
" 	c None",
".	c #052B3F",
"+	c #072D41",
"@	c #0B2F43",
"#	c #0B3042",
"$	c #0C3043",
"%	c #103346",
"&	c #0F3345",
"*	c #103345",
"=	c #0F3245",
"-	c #143547",
";	c #143648",
">	c #133648",
",	c #143548",
"'	c #18384A",
")	c #17394A",
"!	c #173849",
"~	c #1C3C4C",
"{	c #1C3B4C",
"]	c #1B3C4C",
"^	c #203E4E",
"/	c #1F3E4E",
"(	c #203F4E",
"_	c #244150",
":	c #244151",
"<	c #274553",
"[	c #284453",
"}	c #284452",
"|	c #284553",
"1	c #2C4755",
"2	c #304A57",
"3	c #505459",
"4	c #4B5359",
"5	c #4B525A",
"6	c #50565C",
"7	c #4F565C",
"8	c #45535C",
"9	c #3C535E",
"0	c #3C525E",
"a	c #405661",
"b	c #405560",
"c	c #405660",
"d	c #405561",
"e	c #445962",
"f	c #445963",
"g	c #485C65",
"h	c #485B65",
"i	c #4D5F68",
"j	c #4C5F67",
"k	c #4C5E67",
"l	c #516269",
"m	c #50626A",
"n	c #51616A",
"o	c #50616A",
"p	c #54646C",
"q	c #55646C",
"r	c #54656C",
"s	c #59686E",
"t	c #58676E",
"u	c #58686E",
"v	c #5C6B70",
"w	c #5C6A70",
"x	c #5D6A71",
"y	c #616D73",
"z	c #606D72",
"A	c #606D73",
"B	c #616E73",
"C	c #657175",
"D	c #647074",
"E	c #657075",
"F	c #647075",
"G	c #687378",
"H	c #687377",
"I	c #6D767A",
"J	c #6C7679",
"K	c #6C767A",
"L	c #70797C",
"M	c #71797B",
"N	c #70797B",
"O	c #757C7E",
"P	c #747C7E",
"...   ",
"+++.  ",
"@#$$. ",
"%&%*=.",
"--;>,.",
"'')!).",
"~~{]~.",
"^^^/(.",
"_::_:.",
"<[}|[.",
"11111.",
"22222.",
"33454.",
"67867.",
"90999.",
"abcbd.",
"efeef.",
"ggggh.",
"ijjkj.",
"lmnom.",
"pppqr.",
"stutt.",
"vwxwv.",
"yzAzB.",
"CDEFF.",
"GHHHH.",
"IJKJJ.",
"LMMLN.",
"OPPOO.",
"......"};
