/* XPM */
static char * top_left_inactive_xpm[] = {
"6 30 81 1",
" 	c None",
".	c #052B3F",
"+	c #072D41",
"@	c #0C3043",
"#	c #0B3042",
"$	c #0B2F43",
"%	c #0F3245",
"&	c #103345",
"*	c #103346",
"=	c #0F3345",
"-	c #143548",
";	c #133648",
">	c #143648",
",	c #143547",
"'	c #17394A",
")	c #173849",
"!	c #18384A",
"~	c #1C3C4C",
"{	c #1B3C4C",
"]	c #1C3B4C",
"^	c #203F4E",
"/	c #1F3E4E",
"(	c #203E4E",
"_	c #244151",
":	c #244150",
"<	c #284453",
"[	c #284553",
"}	c #284452",
"|	c #274553",
"1	c #2C4755",
"2	c #304A57",
"3	c #4B5359",
"4	c #4B525A",
"5	c #505459",
"6	c #4F565C",
"7	c #50565C",
"8	c #45535C",
"9	c #3C535E",
"0	c #3C525E",
"a	c #405561",
"b	c #405560",
"c	c #405660",
"d	c #405661",
"e	c #445963",
"f	c #445962",
"g	c #485B65",
"h	c #485C65",
"i	c #4C5F67",
"j	c #4C5E67",
"k	c #4D5F68",
"l	c #50626A",
"m	c #50616A",
"n	c #51616A",
"o	c #516269",
"p	c #54656C",
"q	c #55646C",
"r	c #54646C",
"s	c #58676E",
"t	c #58686E",
"u	c #59686E",
"v	c #5C6B70",
"w	c #5C6A70",
"x	c #5D6A71",
"y	c #616E73",
"z	c #606D72",
"A	c #606D73",
"B	c #616D73",
"C	c #647075",
"D	c #657075",
"E	c #647074",
"F	c #657175",
"G	c #687377",
"H	c #687378",
"I	c #6C7679",
"J	c #6C767A",
"K	c #6D767A",
"L	c #70797B",
"M	c #70797C",
"N	c #71797B",
"O	c #757C7E",
"P	c #747C7E",
"   ...",
"  .+++",
" .@@#$",
".%&*=*",
".-;>,,",
".')'!!",
".~{]~~",
".^/(((",
"._:__:",
".<[}<|",
".11111",
".22222",
".34355",
".67867",
".99909",
".abcbd",
".effef",
".ghhhh",
".ijiik",
".lmnlo",
".pqrrr",
".sstsu",
".vwxwv",
".yzAzB",
".CCDEF",
".GGGGH",
".IIJIK",
".LMNNM",
".OOPPO",
"......"};
